<svg width="22" height="22" viewBox="0 0 22 22" fill="none" xmlns="http://www.w3.org/2000/svg">
<g clip-path="url(#clip0)">
<path d="M14.0346 7.97063C13.75 7.97063 13.5193 8.20127 13.5193 8.48585V18.2235C13.5193 18.5079 13.75 18.7388 14.0346 18.7388C14.3192 18.7388 14.5498 18.5079 14.5498 18.2235V8.48585C14.5498 8.20127 14.3192 7.97063 14.0346 7.97063Z" fill="#C2C2C2"/>
<path d="M7.95497 7.97063C7.67039 7.97063 7.43974 8.20127 7.43974 8.48585V18.2235C7.43974 18.5079 7.67039 18.7388 7.95497 18.7388C8.23955 18.7388 8.47019 18.5079 8.47019 18.2235V8.48585C8.47019 8.20127 8.23955 7.97063 7.95497 7.97063Z" fill="#C2C2C2"/>
<path d="M3.52407 6.54954V19.2435C3.52407 19.9938 3.79919 20.6984 4.27979 21.2039C4.75818 21.7109 5.42395 21.9987 6.1207 21.9999H15.8688C16.5658 21.9987 17.2316 21.7109 17.7097 21.2039C18.1903 20.6984 18.4655 19.9938 18.4655 19.2435V6.54954C19.4208 6.29596 20.0399 5.37299 19.9121 4.39266C19.7841 3.41253 18.9491 2.67935 17.9605 2.67915H15.3226V2.03512C15.3256 1.49354 15.1115 0.973484 14.7281 0.590893C14.3447 0.208502 13.8238 -0.00442865 13.2823 -9.68775e-07H8.70727C8.16568 -0.00442865 7.64483 0.208502 7.26143 0.590893C6.87803 0.973484 6.6639 1.49354 6.66692 2.03512V2.67915H4.02903C3.04045 2.67935 2.20543 3.41253 2.07743 4.39266C1.94963 5.37299 2.5687 6.29596 3.52407 6.54954V6.54954ZM15.8688 20.9695H6.1207C5.23979 20.9695 4.55451 20.2128 4.55451 19.2435V6.59482H17.435V19.2435C17.435 20.2128 16.7497 20.9695 15.8688 20.9695ZM7.69736 2.03512C7.69393 1.76684 7.79939 1.50863 7.98978 1.31925C8.17997 1.12986 8.43879 1.02581 8.70727 1.03044H13.2823C13.5507 1.02581 13.8096 1.12986 13.9997 1.31925C14.1901 1.50843 14.2956 1.76684 14.2922 2.03512V2.67915H7.69736V2.03512ZM4.02903 3.70959H17.9605C18.4727 3.70959 18.8879 4.12478 18.8879 4.63699C18.8879 5.14919 18.4727 5.56438 17.9605 5.56438H4.02903C3.51683 5.56438 3.10163 5.14919 3.10163 4.63699C3.10163 4.12478 3.51683 3.70959 4.02903 3.70959V3.70959Z" fill="#C2C2C2"/>
<path d="M10.9948 7.97063C10.7102 7.97063 10.4796 8.20127 10.4796 8.48585V18.2235C10.4796 18.5079 10.7102 18.7388 10.9948 18.7388C11.2794 18.7388 11.51 18.5079 11.51 18.2235V8.48585C11.51 8.20127 11.2794 7.97063 10.9948 7.97063Z" fill="#C2C2C2"/>
</g>
<defs>
<clipPath id="clip0">
<rect width="22" height="22" fill="white"/>
</clipPath>
</defs>
</svg>
